<svg width="15" height="15" viewBox="0 0 15 15" fill="none" xmlns="http://www.w3.org/2000/svg">
<path d="M6.22339 2.6582C6.56129 1.48692 8.2215 1.48686 8.55933 2.6582C8.95628 4.03471 10.2156 4.98236 11.6482 4.98242H11.7566C13.0341 4.98242 13.6065 6.58529 12.6179 7.39453L12.1814 7.75195C11.1244 8.61738 10.6848 10.0292 11.0632 11.3418L11.2771 12.084C11.5967 13.1922 10.2957 14.0505 9.40308 13.3203C8.23303 12.3625 6.54968 12.3625 5.37964 13.3203C4.48705 14.0508 3.18601 13.1923 3.50562 12.084L3.71948 11.3418C4.09794 10.0291 3.65749 8.61734 2.60034 7.75195L2.16382 7.39453C1.17561 6.58531 1.7479 4.98268 3.02515 4.98242H3.13354C4.56619 4.98242 5.82642 4.03476 6.22339 2.6582Z" stroke="#E3170A" stroke-width="2"/>
</svg>
